{"title":"Americas.Got.Talent.S09E08.HDTV.x264-FiNCH","uid":10615301,"size":682323936,"categoryP":"video","categoryS":"tv_shows","magnet":"?xt=urn:btih:ad3dcaceff50b01e2e9bc2456aa3461832ff13e8&amp;dn=Americas.Got.Talent.S09E08.HDTV.x264-FiNCH&amp;tr=udp%3A%2F%2Ftracker.openbittorrent.com%3A80&amp;tr=udp%3A%2F%2Fopen.demonii.com%3A1337&amp;tr=udp%3A%2F%2Ftracker.coppersurfer.tk%3A6969&amp;tr=udp%3A%2F%2Fexodus.desync.com%3A6969","seeders":10,"leechers":1,"uploader":"FiNCH","files":-1,"time":1406104674,"description":"***************************************************************\nAmericas.Got.Talent.S09E08.HDTV.x264-FiNCH\n***************************************************************\n-------------------------------------------------------------------------------\nGeneral Information\n-------------------------------------------------------------------------------\n\nFormat : MPEG-4\nFormat profile : Base Media\nCodec ID : isom\nFile size : 651 MiB\nDuration : 1h 25mn\nOverall bit rate mode : Variable\nOverall bit rate : 1 064 Kbps\nEncoded date : UTC 2014-07-23 06:31:09\nTagged date : UTC 2014-07-23 06:32:15\nWriting application : mp4creator 1.6.1d\n\nVideo\nID : 1\nFormat : AVC\nFormat/Info : Advanced Video Codec\nFormat profile : &lt;a class=&quot;__cf_email__&quot; href=&quot;/cdn-cgi/l/email-protection&quot; data-cfemail=&quot;e2aa8b858aa2aed1ccd3&quot;&gt;[email&amp;#160;protected]&lt;/a&gt;&lt;script cf-hash='f9e31' type=&quot;text/javascript&quot;&gt;\n/* &lt;![CDATA[ */!function(){try{var t=&quot;currentScript&quot;in document?document.currentScript:function(){for(var t=document.getElementsByTagName(&quot;script&quot;),e=t.length;e--;)if(t[e].getAttribute(&quot;cf-hash&quot;))return t[e]}();if(t&amp;&amp;t.previousSibling){var e,r,n,i,c=t.previousSibling,a=c.getAttribute(&quot;data-cfemail&quot;);if(a){for(e=&quot;&quot;,r=parseInt(a.substr(0,2),16),n=2;a.length-n;n+=2)i=parseInt(a.substr(n,2),16)^r,e+=String.fromCharCode(i);e=document.createTextNode(e),c.parentNode.replaceChild(e,c)}}}catch(u){}}();/* ]]&gt; */&lt;/script&gt;\nFormat settings, CABAC : Yes\nFormat settings, ReFrames : 5 frames\nCodec ID : avc1\nCodec ID/Info : Advanced Video Coding\nDuration : 1h 25mn\nBit rate : 952 Kbps\nMaximum bit rate : 1 955 Kbps\nWidth : 720 pixels\nHeight : 404 pixels\nDisplay aspect ratio : 16:9\nFrame rate mode : Constant\nFrame rate : 29.970 fps\nColor space : YUV\nChroma subsampling : 4:2:0\nBit depth : 8 bits\nScan type : Progressive\nBits/(Pixel*Frame) : 0.109\nStream size : 582 MiB (89%)\nWriting library : x264 core 138 r2358 9e941d1\nEncoding settings : cabac=1 / ref=5 / deblock=1:1:0 / analyse=0x3:0x113 / me=umh / subme=8 / psy=1 / psy_rd=1.00:0.00 / mixed_ref=1 / me_range=16 / chroma_me=1 / trellis=1 / 8x8dct=1 / cqm=0 / deadzone=21,11 / fast_pskip=1 / chroma_qp_offset=-2 / threads=12 / lookahead_threads=2 / sliced_threads=0 / nr=0 / decimate=1 / interlaced=0 / bluray_compat=0 / constrained_intra=0 / bframes=3 / b_pyramid=2 / b_adapt=2 / b_bias=0 / direct=1 / weightb=1 / open_gop=0 / weightp=2 / keyint=300 / keyint_min=27 / scenecut=40 / intra_refresh=0 / rc_lookahead=50 / rc=crf / mbtree=1 / crf=20.0 / qcomp=0.60 / qpmin=0 / qpmax=69 / qpstep=4 / vbv_maxrate=1200 / vbv_bufsize=1000 / crf_max=0.0 / nal_hrd=none / ip_ratio=1.40 / aq=1:1.00\nEncoded date : UTC 2014-07-23 06:31:09\nTagged date : UTC 2014-07-23 06:31:19\n\nAudio\nID : 2\nFormat : MPEG Audio\nFormat version : Version 1\nFormat profile : Layer 3\nCodec ID : 6B\nDuration : 1h 23mn\nSource duration : 1h 25mn\nBit rate mode : Variable\nBit rate : 105 Kbps\nMinimum bit rate : 32.0 Kbps\nMaximum bit rate : 140 Kbps\nChannel(s) : 2 channels\nSampling rate : 48.0 KHz\nCompression mode : Lossy\nStream size : 64.0 MiB (10%)\nSource stream size : 64.0 MiB (10%)\nWriting library : LAME3.99r\nEncoding settings : -m s -V 7 -q 0 -lowpass 15.6 --vbr-new -b 32\nLanguage : English\nEncoded date : UTC 2014-07-23 06:32:13\nTagged date : UTC 2014-07-23 06:32:15\n\n-------------------------------------------------------------------------------\n-------------------------------------------------------------------------------\n\nSCREENS\n &lt;a href=&quot;\nhttp://postimg.org/image/c7ji2zqjx/&quot; rel=&quot;nofollow&quot; target=&quot;_NEW&quot;&gt;\nhttp://postimg.org/image/c7ji2zqjx/&lt;/a&gt; &lt;a href=&quot;\nhttp://postimg.org/image/xjr00oai5/&quot; rel=&quot;nofollow&quot; target=&quot;_NEW&quot;&gt;\nhttp://postimg.org/image/xjr00oai5/&lt;/a&gt; &lt;a href=&quot;\nhttp://postimg.org/image/nxxfkdjcd/&quot; rel=&quot;nofollow&quot; target=&quot;_NEW&quot;&gt;\nhttp://postimg.org/image/nxxfkdjcd/&lt;/a&gt; &lt;a href=&quot;\nhttp://postimg.org/image/ti9wv0i7h/&quot; rel=&quot;nofollow&quot; target=&quot;_NEW&quot;&gt;\nhttp://postimg.org/image/ti9wv0i7h/&lt;/a&gt; &lt;a href=&quot;\nhttp://postimg.org/image/77m1v1kx9/&quot; rel=&quot;nofollow&quot; target=&quot;_NEW&quot;&gt;\nhttp://postimg.org/image/77m1v1kx9/&lt;/a&gt;","torrent":{"xt":"urn:btih:ad3dcaceff50b01e2e9bc2456aa3461832ff13e8","amp;dn":"Americas.Got.Talent.S09E08.HDTV.x264-FiNCH","amp;tr":["udp%3A%2F%2Ftracker.openbittorrent.com%3A80","udp%3A%2F%2Fopen.demonii.com%3A1337","udp%3A%2F%2Ftracker.coppersurfer.tk%3A6969","udp%3A%2F%2Fexodus.desync.com%3A6969"],"infoHash":"ad3dcaceff50b01e2e9bc2456aa3461832ff13e8","infoHashBuffer":{"type":"Buffer","data":[173,61,202,206,255,80,176,30,46,155,194,69,106,163,70,24,50,255,19,232]},"announce":[],"urlList":[]}}